<svg width="469" height="462" viewBox="0 0 469 462" fill="none" xmlns="http://www.w3.org/2000/svg">
<path d="M282 54C263.498 -0.62553 241.428 -9.0989 184 10C138.275 -4.78826 132.826 12.6877 124 45L71 64C53.3398 78.6676 52.2343 96.0419 56 133C13.5991 149.721 9.48459 165.414 4 194C-5.28484 247.31 7.31481 262.731 35 286C20.5311 320.945 25.1004 339.148 48 370C88.0616 421.728 106.925 416.778 141 412C186.536 475.12 203.899 461.5 238 456C298.867 458.458 314.397 448.411 312 412C364.451 429.54 383.751 424.813 395 383C444.483 373.582 452.087 361.055 447 332C481.783 289.377 470.925 271.708 433 244C473.686 193.132 472.358 171.855 433 145C445.75 83.8326 437.627 66.4003 389 73C352.839 27.9238 328.589 29.2687 282 54Z" fill="white" stroke="white"/>
<path d="M220 433C226 332 265.383 360.367 256 316C285.974 353.996 315.213 367.704 370.5 389C327.5 334 343.924 288.355 296 250C343.468 283.642 381.204 298.464 430 310C387 248 401 210 354 200C380.293 161.901 345 112 361 83C328.306 87.4737 345 110 296 154C286.706 93.1507 228.5 56 220 28C191.88 59.6487 217.421 104.043 220 139C191.929 95.0167 157.5 104 96.5 83C101.923 116.164 130.267 137.333 166 163C90 169 82.5 195 32.5 219.5C53.3966 241.961 80.0375 262.808 135 263.5C77 296.5 113 298 79 358C119.442 352.398 151.731 350.962 166 302C168.923 367.136 186.531 379.77 220 433Z" fill="black" stroke="black"/>
</svg>
