<svg width="221" height="75" viewBox="0 0 221 75" fill="none" xmlns="http://www.w3.org/2000/svg">
<mask id="path-1-outside-1_6_11" maskUnits="userSpaceOnUse" x="18" y="15" width="185" height="51" fill="black">
<rect fill="white" x="18" y="15" width="185" height="51"/>
<path d="M22.7031 23.8193L26.6094 22.1104V54.6055H43.9922L42.2832 58.5117H22.7031V23.8193ZM66.7725 42.5205V54.6055H84.1553L82.4463 58.5117H62.8662V24.2832L66.7725 22.5742L80.9814 22.5986L79.2725 26.5049H66.7725V38.6143H80.9814L79.2725 42.5205H66.7725ZM99.4893 59V32.9746C99.4893 29.9798 100.563 27.4245 102.712 25.3086C104.86 23.1764 107.456 22.1104 110.5 22.1104C113.544 22.1104 116.14 23.1764 118.288 25.3086C120.437 27.4245 121.511 29.9798 121.511 32.9746V57.291L117.604 59V32.9014C117.588 30.9482 116.888 29.2881 115.505 27.9209C114.105 26.5374 112.437 25.8457 110.5 25.8457C108.547 25.8457 106.87 26.5374 105.471 27.9209C104.087 29.2881 103.396 30.9238 103.396 32.8281C103.396 32.8607 103.396 32.8851 103.396 32.9014V57.291L99.4893 59ZM140.141 22.5986H159.721L158.012 26.5049H151.029V54.6055H159.721L158.012 58.5117H138.432L140.141 54.6055H147.123V26.5049H138.432L140.141 22.5986ZM176.642 59V32.9746C176.642 29.9798 177.716 27.4245 179.864 25.3086C182.013 23.1764 184.609 22.1104 187.652 22.1104C190.696 22.1104 193.292 23.1764 195.44 25.3086C197.589 27.4245 198.663 29.9798 198.663 32.9746V57.291L194.757 59V42.5205H180.548V57.291L176.642 59ZM180.548 38.6143H194.757V32.9014C194.741 30.9482 194.041 29.2881 192.657 27.9209C191.257 26.5374 189.589 25.8457 187.652 25.8457C185.699 25.8457 184.023 26.5374 182.623 27.9209C181.24 29.2881 180.548 30.9238 180.548 32.8281V32.9014V38.6143Z"/>
</mask>
<path d="M22.7031 23.8193L26.6094 22.1104V54.6055H43.9922L42.2832 58.5117H22.7031V23.8193ZM66.7725 42.5205V54.6055H84.1553L82.4463 58.5117H62.8662V24.2832L66.7725 22.5742L80.9814 22.5986L79.2725 26.5049H66.7725V38.6143H80.9814L79.2725 42.5205H66.7725ZM99.4893 59V32.9746C99.4893 29.9798 100.563 27.4245 102.712 25.3086C104.86 23.1764 107.456 22.1104 110.5 22.1104C113.544 22.1104 116.14 23.1764 118.288 25.3086C120.437 27.4245 121.511 29.9798 121.511 32.9746V57.291L117.604 59V32.9014C117.588 30.9482 116.888 29.2881 115.505 27.9209C114.105 26.5374 112.437 25.8457 110.5 25.8457C108.547 25.8457 106.87 26.5374 105.471 27.9209C104.087 29.2881 103.396 30.9238 103.396 32.8281C103.396 32.8607 103.396 32.8851 103.396 32.9014V57.291L99.4893 59ZM140.141 22.5986H159.721L158.012 26.5049H151.029V54.6055H159.721L158.012 58.5117H138.432L140.141 54.6055H147.123V26.5049H138.432L140.141 22.5986ZM176.642 59V32.9746C176.642 29.9798 177.716 27.4245 179.864 25.3086C182.013 23.1764 184.609 22.1104 187.652 22.1104C190.696 22.1104 193.292 23.1764 195.44 25.3086C197.589 27.4245 198.663 29.9798 198.663 32.9746V57.291L194.757 59V42.5205H180.548V57.291L176.642 59ZM180.548 38.6143H194.757V32.9014C194.741 30.9482 194.041 29.2881 192.657 27.9209C191.257 26.5374 189.589 25.8457 187.652 25.8457C185.699 25.8457 184.023 26.5374 182.623 27.9209C181.24 29.2881 180.548 30.9238 180.548 32.8281V32.9014V38.6143Z" fill="black"/>
<path d="M22.7031 23.8193L21.0998 20.1547L18.7031 21.2033V23.8193H22.7031ZM26.6094 22.1104H30.6094V15.9943L25.0061 18.4457L26.6094 22.1104ZM26.6094 54.6055H22.6094V58.6055H26.6094V54.6055ZM43.9922 54.6055L47.6568 56.2087L50.1082 50.6055H43.9922V54.6055ZM42.2832 58.5117V62.5117H44.8993L45.9478 60.115L42.2832 58.5117ZM22.7031 58.5117H18.7031V62.5117H22.7031V58.5117ZM24.3064 27.484L28.2127 25.775L25.0061 18.4457L21.0998 20.1547L24.3064 27.484ZM22.6094 22.1104V54.6055H30.6094V22.1104H22.6094ZM26.6094 58.6055H43.9922V50.6055H26.6094V58.6055ZM40.3276 53.0022L38.6186 56.9084L45.9478 60.115L47.6568 56.2087L40.3276 53.0022ZM42.2832 54.5117H22.7031V62.5117H42.2832V54.5117ZM26.7031 58.5117V23.8193H18.7031V58.5117H26.7031ZM66.7725 42.5205V38.5205H62.7725V42.5205H66.7725ZM66.7725 54.6055H62.7725V58.6055H66.7725V54.6055ZM84.1553 54.6055L87.8199 56.2087L90.2713 50.6055H84.1553V54.6055ZM82.4463 58.5117V62.5117H85.0624L86.1109 60.115L82.4463 58.5117ZM62.8662 58.5117H58.8662V62.5117H62.8662V58.5117ZM62.8662 24.2832L61.2629 20.6186L58.8662 21.6671V24.2832H62.8662ZM66.7725 22.5742L66.7793 18.5742L65.939 18.5728L65.1692 18.9096L66.7725 22.5742ZM80.9814 22.5986L84.6461 24.2019L87.0929 18.6091L80.9883 18.5986L80.9814 22.5986ZM79.2725 26.5049V30.5049H81.8885L82.9371 28.1082L79.2725 26.5049ZM66.7725 26.5049V22.5049H62.7725V26.5049H66.7725ZM66.7725 38.6143H62.7725V42.6143H66.7725V38.6143ZM80.9814 38.6143L84.6461 40.2175L87.0975 34.6143H80.9814V38.6143ZM79.2725 42.5205V46.5205H81.8885L82.9371 44.1238L79.2725 42.5205ZM62.7725 42.5205V54.6055H70.7725V42.5205H62.7725ZM66.7725 58.6055H84.1553V50.6055H66.7725V58.6055ZM80.4906 53.0022L78.7817 56.9084L86.1109 60.115L87.8199 56.2087L80.4906 53.0022ZM82.4463 54.5117H62.8662V62.5117H82.4463V54.5117ZM66.8662 58.5117V24.2832H58.8662V58.5117H66.8662ZM64.4695 27.9478L68.3757 26.2388L65.1692 18.9096L61.2629 20.6186L64.4695 27.9478ZM66.7656 26.5742L80.9746 26.5986L80.9883 18.5986L66.7793 18.5742L66.7656 26.5742ZM77.3168 20.9954L75.6078 24.9016L82.9371 28.1082L84.6461 24.2019L77.3168 20.9954ZM79.2725 22.5049H66.7725V30.5049H79.2725V22.5049ZM62.7725 26.5049V38.6143H70.7725V26.5049H62.7725ZM66.7725 42.6143H80.9814V34.6143H66.7725V42.6143ZM77.3168 37.011L75.6078 40.9172L82.9371 44.1238L84.6461 40.2175L77.3168 37.011ZM79.2725 38.5205H66.7725V46.5205H79.2725V38.5205ZM99.4893 59H95.4893V65.1161L101.093 62.6646L99.4893 59ZM102.712 25.3086L105.519 28.1585L105.524 28.1532L105.53 28.1478L102.712 25.3086ZM118.288 25.3086L115.47 28.1478L115.476 28.1532L115.481 28.1585L118.288 25.3086ZM121.511 57.291L123.114 60.9556L125.511 59.9071V57.291H121.511ZM117.604 59H113.604V65.1161L119.208 62.6646L117.604 59ZM117.604 32.9014H121.604V32.8847L121.604 32.868L117.604 32.9014ZM115.505 27.9209L112.693 30.7658L112.693 30.766L115.505 27.9209ZM105.471 27.9209L108.282 30.766L108.283 30.7658L105.471 27.9209ZM103.396 57.291L104.999 60.9556L107.396 59.9071V57.291H103.396ZM103.489 59V32.9746H95.4893V59H103.489ZM103.489 32.9746C103.489 31.0596 104.128 29.5284 105.519 28.1585L99.9052 22.4587C96.9993 25.3205 95.4893 28.9001 95.4893 32.9746H103.489ZM105.53 28.1478C106.924 26.7638 108.505 26.1104 110.5 26.1104V18.1104C106.407 18.1104 102.797 19.5891 99.8943 22.4694L105.53 28.1478ZM110.5 26.1104C112.495 26.1104 114.076 26.7638 115.47 28.1478L121.106 22.4694C118.203 19.5891 114.593 18.1104 110.5 18.1104V26.1104ZM115.481 28.1585C116.872 29.5284 117.511 31.0596 117.511 32.9746H125.511C125.511 28.9001 124.001 25.3205 121.095 22.4587L115.481 28.1585ZM117.511 32.9746V57.291H125.511V32.9746H117.511ZM119.907 53.6264L116.001 55.3354L119.208 62.6646L123.114 60.9556L119.907 53.6264ZM121.604 59V32.9014H113.604V59H121.604ZM121.604 32.868C121.579 29.8624 120.456 27.1898 118.317 25.0758L112.693 30.766C113.321 31.3864 113.597 32.0341 113.605 32.9347L121.604 32.868ZM118.317 25.076C116.182 22.9658 113.508 21.8457 110.5 21.8457V29.8457C111.365 29.8457 112.029 30.109 112.693 30.7658L118.317 25.076ZM110.5 21.8457C107.485 21.8457 104.801 22.9588 102.659 25.076L108.283 30.7658C108.94 30.1161 109.609 29.8457 110.5 29.8457V21.8457ZM102.659 25.0758C100.533 27.1764 99.3955 29.8293 99.3955 32.8281H107.396C107.396 32.0183 107.641 31.3998 108.282 30.766L102.659 25.0758ZM99.3955 32.8281C99.3955 32.8282 99.3955 32.8283 99.3955 32.8283C99.3955 32.8284 99.3955 32.8284 99.3955 32.8285C99.3955 32.8286 99.3955 32.8286 99.3955 32.8287C99.3955 32.8288 99.3955 32.8288 99.3955 32.8289C99.3955 32.8289 99.3955 32.829 99.3955 32.8291C99.3955 32.8291 99.3955 32.8292 99.3955 32.8293C99.3955 32.8293 99.3955 32.8294 99.3955 32.8295C99.3955 32.8295 99.3955 32.8296 99.3955 32.8296C99.3955 32.8297 99.3955 32.8298 99.3955 32.8298C99.3955 32.8299 99.3955 32.83 99.3955 32.83C99.3955 32.8301 99.3955 32.8302 99.3955 32.8302C99.3955 32.8303 99.3955 32.8303 99.3955 32.8304C99.3955 32.8305 99.3955 32.8305 99.3955 32.8306C99.3955 32.8307 99.3955 32.8307 99.3955 32.8308C99.3955 32.8308 99.3955 32.8309 99.3955 32.831C99.3955 32.831 99.3955 32.8311 99.3955 32.8312C99.3955 32.8312 99.3955 32.8313 99.3955 32.8313C99.3955 32.8314 99.3955 32.8315 99.3955 32.8315C99.3955 32.8316 99.3955 32.8317 99.3955 32.8317C99.3955 32.8318 99.3955 32.8318 99.3955 32.8319C99.3955 32.832 99.3955 32.832 99.3955 32.8321C99.3955 32.8322 99.3955 32.8322 99.3955 32.8323C99.3955 32.8323 99.3955 32.8324 99.3955 32.8325C99.3955 32.8325 99.3955 32.8326 99.3955 32.8326C99.3955 32.8327 99.3955 32.8328 99.3955 32.8328C99.3955 32.8329 99.3955 32.833 99.3955 32.833C99.3955 32.8331 99.3955 32.8331 99.3955 32.8332C99.3955 32.8333 99.3955 32.8333 99.3955 32.8334C99.3955 32.8335 99.3955 32.8335 99.3955 32.8336C99.3955 32.8336 99.3955 32.8337 99.3955 32.8338C99.3955 32.8338 99.3955 32.8339 99.3955 32.834C99.3955 32.834 99.3955 32.8341 99.3955 32.8341C99.3955 32.8342 99.3955 32.8343 99.3955 32.8343C99.3955 32.8344 99.3955 32.8344 99.3955 32.8345C99.3955 32.8346 99.3955 32.8346 99.3955 32.8347C99.3955 32.8347 99.3955 32.8348 99.3955 32.8349C99.3955 32.8349 99.3955 32.835 99.3955 32.8351C99.3955 32.8351 99.3955 32.8352 99.3955 32.8352C99.3955 32.8353 99.3955 32.8354 99.3955 32.8354C99.3955 32.8355 99.3955 32.8355 99.3955 32.8356C99.3955 32.8357 99.3955 32.8357 99.3955 32.8358C99.3955 32.8358 99.3955 32.8359 99.3955 32.836C99.3955 32.836 99.3955 32.8361 99.3955 32.8362C99.3955 32.8362 99.3955 32.8363 99.3955 32.8363C99.3955 32.8364 99.3955 32.8365 99.3955 32.8365C99.3955 32.8366 99.3955 32.8366 99.3955 32.8367C99.3955 32.8368 99.3955 32.8368 99.3955 32.8369C99.3955 32.8369 99.3955 32.837 99.3955 32.8371C99.3955 32.8371 99.3955 32.8372 99.3955 32.8372C99.3955 32.8373 99.3955 32.8374 99.3955 32.8374C99.3955 32.8375 99.3955 32.8376 99.3955 32.8376C99.3955 32.8377 99.3955 32.8377 99.3955 32.8378C99.3955 32.8379 99.3955 32.8379 99.3955 32.838C99.3955 32.838 99.3955 32.8381 99.3955 32.8382C99.3955 32.8382 99.3955 32.8383 99.3955 32.8383C99.3955 32.8384 99.3955 32.8385 99.3955 32.8385C99.3955 32.8386 99.3955 32.8386 99.3955 32.8387C99.3955 32.8388 99.3955 32.8388 99.3955 32.8389C99.3955 32.8389 99.3955 32.839 99.3955 32.8391C99.3955 32.8391 99.3955 32.8392 99.3955 32.8392C99.3955 32.8393 99.3955 32.8394 99.3955 32.8394C99.3955 32.8395 99.3955 32.8395 99.3955 32.8396C99.3955 32.8397 99.3955 32.8397 99.3955 32.8398C99.3955 32.8398 99.3955 32.8399 99.3955 32.84C99.3955 32.84 99.3955 32.8401 99.3955 32.8401C99.3955 32.8402 99.3955 32.8402 99.3955 32.8403C99.3955 32.8404 99.3955 32.8404 99.3955 32.8405C99.3955 32.8405 99.3955 32.8406 99.3955 32.8407C99.3955 32.8407 99.3955 32.8408 99.3955 32.8408C99.3955 32.8409 99.3955 32.841 99.3955 32.841C99.3955 32.8411 99.3955 32.8411 99.3955 32.8412C99.3955 32.8413 99.3955 32.8413 99.3955 32.8414C99.3955 32.8414 99.3955 32.8415 99.3955 32.8416C99.3955 32.8416 99.3955 32.8417 99.3955 32.8417C99.3955 32.8418 99.3955 32.8418 99.3955 32.8419C99.3955 32.842 99.3955 32.842 99.3955 32.8421C99.3955 32.8421 99.3955 32.8422 99.3955 32.8423C99.3955 32.8423 99.3955 32.8424 99.3955 32.8424C99.3955 32.8425 99.3955 32.8426 99.3955 32.8426C99.3955 32.8427 99.3955 32.8427 99.3955 32.8428C99.3955 32.8428 99.3955 32.8429 99.3955 32.843C99.3955 32.843 99.3955 32.8431 99.3955 32.8431C99.3955 32.8432 99.3955 32.8433 99.3955 32.8433C99.3955 32.8434 99.3955 32.8434 99.3955 32.8435C99.3955 32.8435 99.3955 32.8436 99.3955 32.8437C99.3955 32.8437 99.3955 32.8438 99.3955 32.8438C99.3955 32.8439 99.3955 32.844 99.3955 32.844C99.3955 32.8441 99.3955 32.8441 99.3955 32.8442C99.3955 32.8442 99.3955 32.8443 99.3955 32.8444C99.3955 32.8444 99.3955 32.8445 99.3955 32.8445C99.3955 32.8446 99.3955 32.8447 99.3955 32.8447C99.3955 32.8448 99.3955 32.8448 99.3955 32.8449C99.3955 32.8449 99.3955 32.845 99.3955 32.8451C99.3955 32.8451 99.3955 32.8452 99.3955 32.8452C99.3955 32.8453 99.3955 32.8453 99.3955 32.8454C99.3955 32.8455 99.3955 32.8455 99.3955 32.8456C99.3955 32.8456 99.3955 32.8457 99.3955 32.8457C99.3955 32.8458 99.3955 32.8459 99.3955 32.8459C99.3955 32.846 99.3955 32.846 99.3955 32.8461C99.3955 32.8462 99.3955 32.8462 99.3955 32.8463C99.3955 32.8463 99.3955 32.8464 99.3955 32.8464C99.3955 32.8465 99.3955 32.8466 99.3955 32.8466C99.3955 32.8467 99.3955 32.8467 99.3955 32.8468C99.3955 32.8468 99.3955 32.8469 99.3955 32.847C99.3955 32.847 99.3955 32.8471 99.3955 32.8471C99.3955 32.8472 99.3955 32.8472 99.3955 32.8473C99.3955 32.8474 99.3955 32.8474 99.3955 32.8475C99.3955 32.8475 99.3955 32.8476 99.3955 32.8476C99.3955 32.8477 99.3955 32.8478 99.3955 32.8478C99.3955 32.8479 99.3955 32.8479 99.3955 32.848C99.3955 32.848 99.3955 32.8481 99.3955 32.8481C99.3955 32.8482 99.3955 32.8483 99.3955 32.8483C99.3955 32.8484 99.3955 32.8484 99.3955 32.8485C99.3955 32.8485 99.3955 32.8486 99.3955 32.8487C99.3955 32.8487 99.3955 32.8488 99.3955 32.8488C99.3955 32.8489 99.3955 32.8489 99.3955 32.849C99.3955 32.8491 99.3955 32.8491 99.3955 32.8492C99.3955 32.8492 99.3955 32.8493 99.3955 32.8493C99.3955 32.8494 99.3955 32.8494 99.3955 32.8495C99.3955 32.8496 99.3955 32.8496 99.3955 32.8497C99.3955 32.8497 99.3955 32.8498 99.3955 32.8498C99.3955 32.8499 99.3955 32.85 99.3955 32.85C99.3955 32.8501 99.3955 32.8501 99.3955 32.8502C99.3955 32.8502 99.3955 32.8503 99.3955 32.8503C99.3955 32.8504 99.3955 32.8505 99.3955 32.8505C99.3955 32.8506 99.3955 32.8506 99.3955 32.8507C99.3955 32.8507 99.3955 32.8508 99.3955 32.8508C99.3955 32.8509 99.3955 32.851 99.3955 32.851C99.3955 32.8511 99.3955 32.8511 99.3955 32.8512C99.3955 32.8512 99.3955 32.8513 99.3955 32.8513C99.3955 32.8514 99.3955 32.8515 99.3955 32.8515C99.3955 32.8516 99.3955 32.8516 99.3955 32.8517C99.3955 32.8517 99.3955 32.8518 99.3955 32.8518C99.3955 32.8519 99.3955 32.852 99.3955 32.852C99.3955 32.8521 99.3955 32.8521 99.3955 32.8522C99.3955 32.8522 99.3955 32.8523 99.3955 32.8523C99.3955 32.8524 99.3955 32.8525 99.3955 32.8525C99.3955 32.8526 99.3955 32.8526 99.3955 32.8527C99.3955 32.8527 99.3955 32.8528 99.3955 32.8528C99.3955 32.8529 99.3955 32.8529 99.3955 32.853C99.3955 32.8531 99.3955 32.8531 99.3955 32.8532C99.3955 32.8532 99.3955 32.8533 99.3955 32.8533C99.3955 32.8534 99.3955 32.8534 99.3955 32.8535C99.3955 32.8535 99.3955 32.8536 99.3955 32.8537C99.3955 32.8537 99.3955 32.8538 99.3955 32.8538C99.3955 32.8539 99.3955 32.8539 99.3955 32.854C99.3955 32.854 99.3955 32.8541 99.3955 32.8541C99.3955 32.8542 99.3955 32.8543 99.3955 32.8543C99.3955 32.8544 99.3955 32.8544 99.3955 32.8545C99.3955 32.8545 99.3955 32.8546 99.3955 32.8546C99.3955 32.8547 99.3955 32.8547 99.3955 32.8548C99.3955 32.8549 99.3955 32.8549 99.3955 32.855C99.3955 32.855 99.3955 32.8551 99.3955 32.8551C99.3955 32.8552 99.3955 32.8552 99.3955 32.8553C99.3955 32.8553 99.3955 32.8554 99.3955 32.8554C99.3955 32.8555 99.3955 32.8556 99.3955 32.8556C99.3955 32.8557 99.3955 32.8557 99.3955 32.8558C99.3955 32.8558 99.3955 32.8559 99.3955 32.8559C99.3955 32.856 99.3955 32.856 99.3955 32.8561C99.3955 32.8562 99.3955 32.8562 99.3955 32.8563C99.3955 32.8563 99.3955 32.8564 99.3955 32.8564C99.3955 32.8565 99.3955 32.8565 99.3955 32.8566C99.3955 32.8566 99.3955 32.8567 99.3955 32.8567C99.3955 32.8568 99.3955 32.8568 99.3955 32.8569C99.3955 32.857 99.3955 32.857 99.3955 32.8571C99.3955 32.8571 99.3955 32.8572 99.3955 32.8572C99.3955 32.8573 99.3955 32.8573 99.3955 32.8574C99.3955 32.8574 99.3955 32.8575 99.3955 32.8575C99.3955 32.8576 99.3955 32.8576 99.3955 32.8577C99.3955 32.8578 99.3955 32.8578 99.3955 32.8579C99.3955 32.8579 99.3955 32.858 99.3955 32.858C99.3955 32.8581 99.3955 32.8581 99.3955 32.8582C99.3955 32.8582 99.3955 32.8583 99.3955 32.8583C99.3955 32.8584 99.3955 32.8584 99.3955 32.8585C99.3955 32.8585 99.3955 32.8586 99.3955 32.8587C99.3955 32.8587 99.3955 32.8588 99.3955 32.8588C99.3955 32.8589 99.3955 32.8589 99.3955 32.859C99.3955 32.859 99.3955 32.8591 99.3955 32.8591C99.3955 32.8592 99.3955 32.8592 99.3955 32.8593C99.3955 32.8593 99.3955 32.8594 99.3955 32.8594C99.3955 32.8595 99.3955 32.8595 99.3955 32.8596C99.3955 32.8596 99.3955 32.8597 99.3955 32.8598C99.3955 32.8598 99.3955 32.8599 99.3955 32.8599C99.3955 32.86 99.3955 32.86 99.3955 32.8601C99.3955 32.8601 99.3955 32.8602 99.3955 32.8602C99.3955 32.8603 99.3955 32.8603 99.3955 32.8604C99.3955 32.8604 99.3955 32.8605 99.3955 32.8605C99.3955 32.8606 99.3955 32.8606 99.3955 32.8607C99.3955 32.8607 99.3955 32.8608 99.3955 32.8608C99.3955 32.8609 99.3955 32.861 99.3955 32.861C99.3955 32.8611 99.3955 32.8611 99.3955 32.8612C99.3955 32.8612 99.3955 32.8613 99.3955 32.8613C99.3955 32.8614 99.3955 32.8614 99.3955 32.8615C99.3955 32.8615 99.3955 32.8616 99.3955 32.8616C99.3955 32.8617 99.3955 32.8617 99.3955 32.8618C99.3955 32.8618 99.3955 32.8619 99.3955 32.8619C99.3955 32.862 99.3955 32.862 99.3955 32.8621C99.3955 32.8621 99.3955 32.8622 99.3955 32.8622C99.3955 32.8623 99.3955 32.8623 99.3955 32.8624C99.3955 32.8624 99.3955 32.8625 99.3955 32.8625C99.3955 32.8626 99.3955 32.8626 99.3955 32.8627C99.3955 32.8628 99.3955 32.8628 99.3955 32.8629C99.3955 32.8629 99.3955 32.863 99.3955 32.863C99.3955 32.8631 99.3955 32.8631 99.3955 32.8632C99.3955 32.8632 99.3955 32.8633 99.3955 32.8633C99.3955 32.8634 99.3955 32.8634 99.3955 32.8635C99.3955 32.8635 99.3955 32.8636 99.3955 32.8636C99.3955 32.8637 99.3955 32.8637 99.3955 32.8638C99.3955 32.8638 99.3955 32.8639 99.3955 32.8639C99.3955 32.864 99.3955 32.864 99.3955 32.8641C99.3955 32.8641 99.3955 32.8642 99.3955 32.8642C99.3955 32.8643 99.3955 32.8643 99.3955 32.8644C99.3955 32.8644 99.3955 32.8645 99.3955 32.8645C99.3955 32.8646 99.3955 32.8646 99.3955 32.8647C99.3955 32.8647 99.3955 32.8648 99.3955 32.8648C99.3955 32.8649 99.3955 32.8649 99.3955 32.865C99.3955 32.865 99.3955 32.8651 99.3955 32.8651C99.3955 32.8652 99.3955 32.8652 99.3955 32.8653C99.3955 32.8653 99.3955 32.8654 99.3955 32.8654C99.3955 32.8655 99.3955 32.8655 99.3955 32.8656C99.3955 32.8656 99.3955 32.8657 99.3955 32.8657C99.3955 32.8658 99.3955 32.8658 99.3955 32.8659C99.3955 32.8659 99.3955 32.866 99.3955 32.866C99.3955 32.8661 99.3955 32.8661 99.3955 32.8662C99.3955 32.8662 99.3955 32.8663 99.3955 32.8663C99.3955 32.8664 99.3955 32.8664 99.3955 32.8665C99.3955 32.8665 99.3955 32.8666 99.3955 32.8666C99.3955 32.8667 99.3955 32.8667 99.3955 32.8668C99.3955 32.8668 99.3955 32.8669 99.3955 32.8669C99.3955 32.867 99.3955 32.867 99.3955 32.8671C99.3955 32.8671 99.3955 32.8672 99.3955 32.8672C99.3955 32.8673 99.3955 32.8673 99.3955 32.8674C99.3955 32.8674 99.3955 32.8675 99.3955 32.8675C99.3955 32.8676 99.3955 32.8676 99.3955 32.8677C99.3955 32.8677 99.3955 32.8678 99.3955 32.8678C99.3955 32.8679 99.3955 32.8679 99.3955 32.868C99.3955 32.868 99.3955 32.868 99.3955 32.8681C99.3955 32.8681 99.3955 32.8682 99.3955 32.8682C99.3955 32.8683 99.3955 32.8683 99.3955 32.8684C99.3955 32.8684 99.3955 32.8685 99.3955 32.8685C99.3955 32.8686 99.3955 32.8686 99.3955 32.8687C99.3955 32.8687 99.3955 32.8688 99.3955 32.8688C99.3955 32.8689 99.3955 32.8689 99.3955 32.869C99.3955 32.869 99.3955 32.8691 99.3955 32.8691C99.3955 32.8692 99.3955 32.8692 99.3955 32.8693C99.3955 32.8693 99.3955 32.8694 99.3955 32.8694C99.3955 32.8695 99.3955 32.8695 99.3955 32.8696C99.3955 32.8696 99.3955 32.8697 99.3955 32.8697C99.3955 32.8697 99.3955 32.8698 99.3955 32.8698C99.3955 32.8699 99.3955 32.8699 99.3955 32.87C99.3955 32.87 99.3955 32.8701 99.3955 32.8701C99.3955 32.8702 99.3955 32.8702 99.3955 32.8703C99.3955 32.8703 99.3955 32.8704 99.3955 32.8704C99.3955 32.8705 99.3955 32.8705 99.3955 32.8706C99.3955 32.8706 99.3955 32.8707 99.3955 32.8707C99.3955 32.8708 99.3955 32.8708 99.3955 32.8708C99.3955 32.8709 99.3955 32.8709 99.3955 32.871C99.3955 32.871 99.3955 32.8711 99.3955 32.8711C99.3955 32.8712 99.3955 32.8712 99.3955 32.8713C99.3955 32.8713 99.3955 32.8714 99.3955 32.8714C99.3955 32.8715 99.3955 32.8715 99.3955 32.8716C99.3955 32.8716 99.3955 32.8717 99.3955 32.8717C99.3955 32.8718 99.3955 32.8718 99.3955 32.8718C99.3955 32.8719 99.3955 32.8719 99.3955 32.872C99.3955 32.872 99.3955 32.8721 99.3955 32.8721C99.3955 32.8722 99.3955 32.8722 99.3955 32.8723C99.3955 32.8723 99.3955 32.8724 99.3955 32.8724C99.3955 32.8725 99.3955 32.8725 99.3955 32.8726C99.3955 32.8726 99.3955 32.8726 99.3955 32.8727C99.3955 32.8727 99.3955 32.8728 99.3955 32.8728C99.3955 32.8729 99.3955 32.8729 99.3955 32.873C99.3955 32.873 99.3955 32.8731 99.3955 32.8731C99.3955 32.8732 99.3955 32.8732 99.3955 32.8733C99.3955 32.8733 99.3955 32.8733 99.3955 32.8734C99.3955 32.8734 99.3955 32.8735 99.3955 32.8735C99.3955 32.8736 99.3955 32.8736 99.3955 32.8737C99.3955 32.8737 99.3955 32.8738 99.3955 32.8738C99.3955 32.8739 99.3955 32.8739 99.3955 32.874C99.3955 32.874 99.3955 32.874 99.3955 32.8741C99.3955 32.8741 99.3955 32.8742 99.3955 32.8742C99.3955 32.8743 99.3955 32.8743 99.3955 32.8744C99.3955 32.8744 99.3955 32.8745 99.3955 32.8745C99.3955 32.8746 99.3955 32.8746 99.3955 32.8746C99.3955 32.8747 99.3955 32.8747 99.3955 32.8748C99.3955 32.8748 99.3955 32.8749 99.3955 32.8749C99.3955 32.875 99.3955 32.875 99.3955 32.8751C99.3955 32.8751 99.3955 32.8751 99.3955 32.8752C99.3955 32.8752 99.3955 32.8753 99.3955 32.8753C99.3955 32.8754 99.3955 32.8754 99.3955 32.8755C99.3955 32.8755 99.3955 32.8756 99.3955 32.8756C99.3955 32.8757 99.3955 32.8757 99.3955 32.8757C99.3955 32.8758 99.3955 32.8758 99.3955 32.8759C99.3955 32.8759 99.3955 32.876 99.3955 32.876C99.3955 32.8761 99.3955 32.8761 99.3955 32.8762C99.3955 32.8762 99.3955 32.8762 99.3955 32.8763C99.3955 32.8763 99.3955 32.8764 99.3955 32.8764C99.3955 32.8765 99.3955 32.8765 99.3955 32.8766C99.3955 32.8766 99.3955 32.8766 99.3955 32.8767C99.3955 32.8767 99.3955 32.8768 99.3955 32.8768C99.3955 32.8769 99.3955 32.8769 99.3955 32.877C99.3955 32.877 99.3955 32.8771 99.3955 32.8771C99.3955 32.8771 99.3955 32.8772 99.3955 32.8772C99.3955 32.8773 99.3955 32.8773 99.3955 32.8774C99.3955 32.8774 99.3955 32.8775 99.3955 32.8775C99.3955 32.8775 99.3955 32.8776 99.3955 32.8776C99.3955 32.8777 99.3955 32.8777 99.3955 32.8778C99.3955 32.8778 99.3955 32.8779 99.3955 32.8779C99.3955 32.8779 99.3955 32.878 99.3955 32.878C99.3955 32.8781 99.3955 32.8781 99.3955 32.8782C99.3955 32.8782 99.3955 32.8783 99.3955 32.8783C99.3955 32.8783 99.3955 32.8784 99.3955 32.8784C99.3955 32.8785 99.3955 32.8785 99.3955 32.8786C99.3955 32.8786 99.3955 32.8787 99.3955 32.8787C99.3955 32.8787 99.3955 32.8788 99.3955 32.8788C99.3955 32.8789 99.3955 32.8789 99.3955 32.879C99.3955 32.879 99.3955 32.8791 99.3955 32.8791C99.3955 32.8791 99.3955 32.8792 99.3955 32.8792C99.3955 32.8793 99.3955 32.8793 99.3955 32.8794C99.3955 32.8794 99.3955 32.8794 99.3955 32.8795C99.3955 32.8795 99.3955 32.8796 99.3955 32.8796C99.3955 32.8797 99.3955 32.8797 99.3955 32.8798C99.3955 32.8798 99.3955 32.8798 99.3955 32.8799C99.3955 32.8799 99.3955 32.88 99.3955 32.88C99.3955 32.8801 99.3955 32.8801 99.3955 32.8801C99.3955 32.8802 99.3955 32.8802 99.3955 32.8803C99.3955 32.8803 99.3955 32.8804 99.3955 32.8804C99.3955 32.8805 99.3955 32.8805 99.3955 32.8805C99.3955 32.8806 99.3955 32.8806 99.3955 32.8807C99.3955 32.8807 99.3955 32.8808 99.3955 32.8808C99.3955 32.8808 99.3955 32.8809 99.3955 32.8809C99.3955 32.881 99.3955 32.881 99.3955 32.8811C99.3955 32.8811 99.3955 32.8811 99.3955 32.8812C99.3955 32.8812 99.3955 32.8813 99.3955 32.8813C99.3955 32.8814 99.3955 32.8814 99.3955 32.8814C99.3955 32.8815 99.3955 32.8815 99.3955 32.8816C99.3955 32.8816 99.3955 32.8817 99.3955 32.8817C99.3955 32.8817 99.3955 32.8818 99.3955 32.8818C99.3955 32.8819 99.3955 32.8819 99.3955 32.882C99.3955 32.882 99.3955 32.882 99.3955 32.8821C99.3955 32.8821 99.3955 32.8822 99.3955 32.8822C99.3955 32.8823 99.3955 32.8823 99.3955 32.8823C99.3955 32.8824 99.3955 32.8824 99.3955 32.8825C99.3955 32.8825 99.3955 32.8825 99.3955 32.8826C99.3955 32.8826 99.3955 32.8827 99.3955 32.8827C99.3955 32.8828 99.3955 32.8828 99.3955 32.8828C99.3955 32.8829 99.3955 32.8829 99.3955 32.883C99.3955 32.883 99.3955 32.8831 99.3955 32.8831C99.3955 32.8831 99.3955 32.8832 99.3955 32.8832C99.3955 32.8833 99.3955 32.8833 99.3955 32.8833C99.3955 32.8834 99.3955 32.8834 99.3955 32.8835C99.3955 32.8835 99.3955 32.8836 99.3955 32.8836C99.3955 32.8836 99.3955 32.8837 99.3955 32.8837C99.3955 32.8838 99.3955 32.8838 99.3955 32.8839C99.3955 32.8839 99.3955 32.8839 99.3955 32.884C99.3955 32.884 99.3955 32.8841 99.3955 32.8841C99.3955 32.8841 99.3955 32.8842 99.3955 32.8842C99.3955 32.8843 99.3955 32.8843 99.3955 32.8843C99.3955 32.8844 99.3955 32.8844 99.3955 32.8845C99.3955 32.8845 99.3955 32.8846 99.3955 32.8846C99.3955 32.8846 99.3955 32.8847 99.3955 32.8847C99.3955 32.8848 99.3955 32.8848 99.3955 32.8848C99.3955 32.8849 99.3955 32.8849 99.3955 32.885C99.3955 32.885 99.3955 32.885 99.3955 32.8851C99.3955 32.8851 99.3955 32.8852 99.3955 32.8852C99.3955 32.8853 99.3955 32.8853 99.3955 32.8853C99.3955 32.8854 99.3955 32.8854 99.3955 32.8855C99.3955 32.8855 99.3955 32.8855 99.3955 32.8856C99.3955 32.8856 99.3955 32.8857 99.3955 32.8857C99.3955 32.8857 99.3955 32.8858 99.3955 32.8858C99.3955 32.8859 99.3955 32.8859 99.3955 32.8859C99.3955 32.886 99.3955 32.886 99.3955 32.8861C99.3955 32.8861 99.3955 32.8862 99.3955 32.8862C99.3955 32.8862 99.3955 32.8863 99.3955 32.8863C99.3955 32.8864 99.3955 32.8864 99.3955 32.8864C99.3955 32.8865 99.3955 32.8865 99.3955 32.8866C99.3955 32.8866 99.3955 32.8866 99.3955 32.8867C99.3955 32.8867 99.3955 32.8868 99.3955 32.8868C99.3955 32.8868 99.3955 32.8869 99.3955 32.8869C99.3955 32.887 99.3955 32.887 99.3955 32.887C99.3955 32.8871 99.3955 32.8871 99.3955 32.8872C99.3955 32.8872 99.3955 32.8872 99.3955 32.8873C99.3955 32.8873 99.3955 32.8874 99.3955 32.8874C99.3955 32.8874 99.3955 32.8875 99.3955 32.8875C99.3955 32.8876 99.3955 32.8876 99.3955 32.8876C99.3955 32.8877 99.3955 32.8877 99.3955 32.8878C99.3955 32.8878 99.3955 32.8878 99.3955 32.8879C99.3955 32.8879 99.3955 32.888 99.3955 32.888C99.3955 32.888 99.3955 32.8881 99.3955 32.8881C99.3955 32.8881 99.3955 32.8882 99.3955 32.8882C99.3955 32.8883 99.3955 32.8883 99.3955 32.8883C99.3955 32.8884 99.3955 32.8884 99.3955 32.8885C99.3955 32.8885 99.3955 32.8885 99.3955 32.8886C99.3955 32.8886 99.3955 32.8887 99.3955 32.8887C99.3955 32.8887 99.3955 32.8888 99.3955 32.8888C99.3955 32.8889 99.3955 32.8889 99.3955 32.8889C99.3955 32.889 99.3955 32.889 99.3955 32.889C99.3955 32.8891 99.3955 32.8891 99.3955 32.8892C99.3955 32.8892 99.3955 32.8892 99.3955 32.8893C99.3955 32.8893 99.3955 32.8894 99.3955 32.8894C99.3955 32.8894 99.3955 32.8895 99.3955 32.8895C99.3955 32.8896 99.3955 32.8896 99.3955 32.8896C99.3955 32.8897 99.3955 32.8897 99.3955 32.8898C99.3955 32.8898 99.3955 32.8898 99.3955 32.8899C99.3955 32.8899 99.3955 32.8899 99.3955 32.89C99.3955 32.89 99.3955 32.8901 99.3955 32.8901C99.3955 32.8901 99.3955 32.8902 99.3955 32.8902C99.3955 32.8903 99.3955 32.8903 99.3955 32.8903C99.3955 32.8904 99.3955 32.8904 99.3955 32.8904C99.3955 32.8905 99.3955 32.8905 99.3955 32.8906C99.3955 32.8906 99.3955 32.8906 99.3955 32.8907C99.3955 32.8907 99.3955 32.8907 99.3955 32.8908C99.3955 32.8908 99.3955 32.8909 99.3955 32.8909C99.3955 32.8909 99.3955 32.891 99.3955 32.891C99.3955 32.8911 99.3955 32.8911 99.3955 32.8911C99.3955 32.8912 99.3955 32.8912 99.3955 32.8912C99.3955 32.8913 99.3955 32.8913 99.3955 32.8914C99.3955 32.8914 99.3955 32.8914 99.3955 32.8915C99.3955 32.8915 99.3955 32.8915 99.3955 32.8916C99.3955 32.8916 99.3955 32.8917 99.3955 32.8917C99.3955 32.8917 99.3955 32.8918 99.3955 32.8918C99.3955 32.8918 99.3955 32.8919 99.3955 32.8919C99.3955 32.892 99.3955 32.892 99.3955 32.892C99.3955 32.8921 99.3955 32.8921 99.3955 32.8921C99.3955 32.8922 99.3955 32.8922 99.3955 32.8923C99.3955 32.8923 99.3955 32.8923 99.3955 32.8924C99.3955 32.8924 99.3955 32.8924 99.3955 32.8925C99.3955 32.8925 99.3955 32.8926 99.3955 32.8926C99.3955 32.8926 99.3955 32.8927 99.3955 32.8927C99.3955 32.8927 99.3955 32.8928 99.3955 32.8928C99.3955 32.8928 99.3955 32.8929 99.3955 32.8929C99.3955 32.893 99.3955 32.893 99.3955 32.893C99.3955 32.8931 99.3955 32.8931 99.3955 32.8931C99.3955 32.8932 99.3955 32.8932 99.3955 32.8933C99.3955 32.8933 99.3955 32.8933 99.3955 32.8934C99.3955 32.8934 99.3955 32.8934 99.3955 32.8935C99.3955 32.8935 99.3955 32.8935 99.3955 32.8936C99.3955 32.8936 99.3955 32.8937 99.3955 32.8937C99.3955 32.8937 99.3955 32.8938 99.3955 32.8938C99.3955 32.8938 99.3955 32.8939 99.3955 32.8939C99.3955 32.8939 99.3955 32.894 99.3955 32.894C99.3955 32.8941 99.3955 32.8941 99.3955 32.8941C99.3955 32.8942 99.3955 32.8942 99.3955 32.8942C99.3955 32.8943 99.3955 32.8943 99.3955 32.8943C99.3955 32.8944 99.3955 32.8944 99.3955 32.8945C99.3955 32.8945 99.3955 32.8945 99.3955 32.8946C99.3955 32.8946 99.3955 32.8946 99.3955 32.8947C99.3955 32.8947 99.3955 32.8947 99.3955 32.8948C99.3955 32.8948 99.3955 32.8948 99.3955 32.8949C99.3955 32.8949 99.3955 32.895 99.3955 32.895C99.3955 32.895 99.3955 32.8951 99.3955 32.8951C99.3955 32.8951 99.3955 32.8952 99.3955 32.8952C99.3955 32.8952 99.3955 32.8953 99.3955 32.8953C99.3955 32.8953 99.3955 32.8954 99.3955 32.8954C99.3955 32.8955 99.3955 32.8955 99.3955 32.8955C99.3955 32.8956 99.3955 32.8956 99.3955 32.8956C99.3955 32.8957 99.3955 32.8957 99.3955 32.8957C99.3955 32.8958 99.3955 32.8958 99.3955 32.8958C99.3955 32.8959 99.3955 32.8959 99.3955 32.8959C99.3955 32.896 99.3955 32.896 99.3955 32.896C99.3955 32.8961 99.3955 32.8961 99.3955 32.8962C99.3955 32.8962 99.3955 32.8962 99.3955 32.8963C99.3955 32.8963 99.3955 32.8963 99.3955 32.8964C99.3955 32.8964 99.3955 32.8964 99.3955 32.8965C99.3955 32.8965 99.3955 32.8965 99.3955 32.8966C99.3955 32.8966 99.3955 32.8966 99.3955 32.8967C99.3955 32.8967 99.3955 32.8967 99.3955 32.8968C99.3955 32.8968 99.3955 32.8969 99.3955 32.8969C99.3955 32.8969 99.3955 32.897 99.3955 32.897C99.3955 32.897 99.3955 32.8971 99.3955 32.8971C99.3955 32.8971 99.3955 32.8972 99.3955 32.8972C99.3955 32.8972 99.3955 32.8973 99.3955 32.8973C99.3955 32.8973 99.3955 32.8974 99.3955 32.8974C99.3955 32.8974 99.3955 32.8975 99.3955 32.8975C99.3955 32.8975 99.3955 32.8976 99.3955 32.8976C99.3955 32.8976 99.3955 32.8977 99.3955 32.8977C99.3955 32.8977 99.3955 32.8978 99.3955 32.8978C99.3955 32.8978 99.3955 32.8979 99.3955 32.8979C99.3955 32.8979 99.3955 32.898 99.3955 32.898C99.3955 32.8981 99.3955 32.8981 99.3955 32.8981C99.3955 32.8982 99.3955 32.8982 99.3955 32.8982C99.3955 32.8983 99.3955 32.8983 99.3955 32.8983C99.3955 32.8984 99.3955 32.8984 99.3955 32.8984C99.3955 32.8985 99.3955 32.8985 99.3955 32.8985C99.3955 32.8986 99.3955 32.8986 99.3955 32.8986C99.3955 32.8987 99.3955 32.8987 99.3955 32.8987C99.3955 32.8988 99.3955 32.8988 99.3955 32.8988C99.3955 32.8989 99.3955 32.8989 99.3955 32.8989C99.3955 32.899 99.3955 32.899 99.3955 32.899C99.3955 32.8991 99.3955 32.8991 99.3955 32.8991C99.3955 32.8992 99.3955 32.8992 99.3955 32.8992C99.3955 32.8993 99.3955 32.8993 99.3955 32.8993C99.3955 32.8994 99.3955 32.8994 99.3955 32.8994C99.3955 32.8995 99.3955 32.8995 99.3955 32.8995C99.3955 32.8996 99.3955 32.8996 99.3955 32.8996C99.3955 32.8997 99.3955 32.8997 99.3955 32.8997C99.3955 32.8998 99.3955 32.8998 99.3955 32.8998C99.3955 32.8998 99.3955 32.8999 99.3955 32.8999C99.3955 32.8999 99.3955 32.9 99.3955 32.9C99.3955 32.9 99.3955 32.9001 99.3955 32.9001C99.3955 32.9001 99.3955 32.9002 99.3955 32.9002C99.3955 32.9002 99.3955 32.9003 99.3955 32.9003C99.3955 32.9003 99.3955 32.9004 99.3955 32.9004C99.3955 32.9004 99.3955 32.9005 99.3955 32.9005C99.3955 32.9005 99.3955 32.9006 99.3955 32.9006C99.3955 32.9006 99.3955 32.9007 99.3955 32.9007C99.3955 32.9007 99.3955 32.9008 99.3955 32.9008C99.3955 32.9008 99.3955 32.9009 99.3955 32.9009C99.3955 32.9009 99.3955 32.901 99.3955 32.901C99.3955 32.901 99.3955 32.901 99.3955 32.9011C99.3955 32.9011 99.3955 32.9011 99.3955 32.9012C99.3955 32.9012 99.3955 32.9012 99.3955 32.9013C99.3955 32.9013 99.3955 32.9013 99.3955 32.9014H107.396C107.396 32.9013 107.396 32.9013 107.396 32.9013C107.396 32.9012 107.396 32.9012 107.396 32.9012C107.396 32.9011 107.396 32.9011 107.396 32.9011C107.396 32.901 107.396 32.901 107.396 32.901C107.396 32.901 107.396 32.9009 107.396 32.9009C107.396 32.9009 107.396 32.9008 107.396 32.9008C107.396 32.9008 107.396 32.9007 107.396 32.9007C107.396 32.9007 107.396 32.9006 107.396 32.9006C107.396 32.9006 107.396 32.9005 107.396 32.9005C107.396 32.9005 107.396 32.9004 107.396 32.9004C107.396 32.9004 107.396 32.9003 107.396 32.9003C107.396 32.9003 107.396 32.9002 107.396 32.9002C107.396 32.9002 107.396 32.9001 107.396 32.9001C107.396 32.9001 107.396 32.9 107.396 32.9C107.396 32.9 107.396 32.8999 107.396 32.8999C107.396 32.8999 107.396 32.8998 107.396 32.8998C107.396 32.8998 107.396 32.8998 107.396 32.8997C107.396 32.8997 107.396 32.8997 107.396 32.8996C107.396 32.8996 107.396 32.8996 107.396 32.8995C107.396 32.8995 107.396 32.8995 107.396 32.8994C107.396 32.8994 107.396 32.8994 107.396 32.8993C107.396 32.8993 107.396 32.8993 107.396 32.8992C107.396 32.8992 107.396 32.8992 107.396 32.8991C107.396 32.8991 107.396 32.8991 107.396 32.899C107.396 32.899 107.396 32.899 107.396 32.8989C107.396 32.8989 107.396 32.8989 107.396 32.8988C107.396 32.8988 107.396 32.8988 107.396 32.8987C107.396 32.8987 107.396 32.8987 107.396 32.8986C107.396 32.8986 107.396 32.8986 107.396 32.8985C107.396 32.8985 107.396 32.8985 107.396 32.8984C107.396 32.8984 107.396 32.8984 107.396 32.8983C107.396 32.8983 107.396 32.8983 107.396 32.8982C107.396 32.8982 107.396 32.8982 107.396 32.8981C107.396 32.8981 107.396 32.8981 107.396 32.898C107.396 32.898 107.396 32.8979 107.396 32.8979C107.396 32.8979 107.396 32.8978 107.396 32.8978C107.396 32.8978 107.396 32.8977 107.396 32.8977C107.396 32.8977 107.396 32.8976 107.396 32.8976C107.396 32.8976 107.396 32.8975 107.396 32.8975C107.396 32.8975 107.396 32.8974 107.396 32.8974C107.396 32.8974 107.396 32.8973 107.396 32.8973C107.396 32.8973 107.396 32.8972 107.396 32.8972C107.396 32.8972 107.396 32.8971 107.396 32.8971C107.396 32.8971 107.396 32.897 107.396 32.897C107.396 32.897 107.396 32.8969 107.396 32.8969C107.396 32.8969 107.396 32.8968 107.396 32.8968C107.396 32.8967 107.396 32.8967 107.396 32.8967C107.396 32.8966 107.396 32.8966 107.396 32.8966C107.396 32.8965 107.396 32.8965 107.396 32.8965C107.396 32.8964 107.396 32.8964 107.396 32.8964C107.396 32.8963 107.396 32.8963 107.396 32.8963C107.396 32.8962 107.396 32.8962 107.396 32.8962C107.396 32.8961 107.396 32.8961 107.396 32.896C107.396 32.896 107.396 32.896 107.396 32.8959C107.396 32.8959 107.396 32.8959 107.396 32.8958C107.396 32.8958 107.396 32.8958 107.396 32.8957C107.396 32.8957 107.396 32.8957 107.396 32.8956C107.396 32.8956 107.396 32.8956 107.396 32.8955C107.396 32.8955 107.396 32.8955 107.396 32.8954C107.396 32.8954 107.396 32.8953 107.396 32.8953C107.396 32.8953 107.396 32.8952 107.396 32.8952C107.396 32.8952 107.396 32.8951 107.396 32.8951C107.396 32.8951 107.396 32.895 107.396 32.895C107.396 32.895 107.396 32.8949 107.396 32.8949C107.396 32.8948 107.396 32.8948 107.396 32.8948C107.396 32.8947 107.396 32.8947 107.396 32.8947C107.396 32.8946 107.396 32.8946 107.396 32.8946C107.396 32.8945 107.396 32.8945 107.396 32.8945C107.396 32.8944 107.396 32.8944 107.396 32.8943C107.396 32.8943 107.396 32.8943 107.396 32.8942C107.396 32.8942 107.396 32.8942 107.396 32.8941C107.396 32.8941 107.396 32.8941 107.396 32.894C107.396 32.894 107.396 32.8939 107.396 32.8939C107.396 32.8939 107.396 32.8938 107.396 32.8938C107.396 32.8938 107.396 32.8937 107.396 32.8937C107.396 32.8937 107.396 32.8936 107.396 32.8936C107.396 32.8935 107.396 32.8935 107.396 32.8935C107.396 32.8934 107.396 32.8934 107.396 32.8934C107.396 32.8933 107.396 32.8933 107.396 32.8933C107.396 32.8932 107.396 32.8932 107.396 32.8931C107.396 32.8931 107.396 32.8931 107.396 32.893C107.396 32.893 107.396 32.893 107.396 32.8929C107.396 32.8929 107.396 32.8928 107.396 32.8928C107.396 32.8928 107.396 32.8927 107.396 32.8927C107.396 32.8927 107.396 32.8926 107.396 32.8926C107.396 32.8926 107.396 32.8925 107.396 32.8925C107.396 32.8924 107.396 32.8924 107.396 32.8924C107.396 32.8923 107.396 32.8923 107.396 32.8923C107.396 32.8922 107.396 32.8922 107.396 32.8921C107.396 32.8921 107.396 32.8921 107.396 32.892C107.396 32.892 107.396 32.892 107.396 32.8919C107.396 32.8919 107.396 32.8918 107.396 32.8918C107.396 32.8918 107.396 32.8917 107.396 32.8917C107.396 32.8917 107.396 32.8916 107.396 32.8916C107.396 32.8915 107.396 32.8915 107.396 32.8915C107.396 32.8914 107.396 32.8914 107.396 32.8914C107.396 32.8913 107.396 32.8913 107.396 32.8912C107.396 32.8912 107.396 32.8912 107.396 32.8911C107.396 32.8911 107.396 32.8911 107.396 32.891C107.396 32.891 107.396 32.8909 107.396 32.8909C107.396 32.8909 107.396 32.8908 107.396 32.8908C107.396 32.8907 107.396 32.8907 107.396 32.8907C107.396 32.8906 107.396 32.8906 107.396 32.8906C107.396 32.8905 107.396 32.8905 107.396 32.8904C107.396 32.8904 107.396 32.8904 107.396 32.8903C107.396 32.8903 107.396 32.8903 107.396 32.8902C107.396 32.8902 107.396 32.8901 107.396 32.8901C107.396 32.8901 107.396 32.89 107.396 32.89C107.396 32.8899 107.396 32.8899 107.396 32.8899C107.396 32.8898 107.396 32.8898 107.396 32.8898C107.396 32.8897 107.396 32.8897 107.396 32.8896C107.396 32.8896 107.396 32.8896 107.396 32.8895C107.396 32.8895 107.396 32.8894 107.396 32.8894C107.396 32.8894 107.396 32.8893 107.396 32.8893C107.396 32.8892 107.396 32.8892 107.396 32.8892C107.396 32.8891 107.396 32.8891 107.396 32.889C107.396 32.889 107.396 32.889 107.396 32.8889C107.396 32.8889 107.396 32.8889 107.396 32.8888C107.396 32.8888 107.396 32.8887 107.396 32.8887C107.396 32.8887 107.396 32.8886 107.396 32.8886C107.396 32.8885 107.396 32.8885 107.396 32.8885C107.396 32.8884 107.396 32.8884 107.396 32.8883C107.396 32.8883 107.396 32.8883 107.396 32.8882C107.396 32.8882 107.396 32.8881 107.396 32.8881C107.396 32.8881 107.396 32.888 107.396 32.888C107.396 32.888 107.396 32.8879 107.396 32.8879C107.396 32.8878 107.396 32.8878 107.396 32.8878C107.396 32.8877 107.396 32.8877 107.396 32.8876C107.396 32.8876 107.396 32.8876 107.396 32.8875C107.396 32.8875 107.396 32.8874 107.396 32.8874C107.396 32.8874 107.396 32.8873 107.396 32.8873C107.396 32.8872 107.396 32.8872 107.396 32.8872C107.396 32.8871 107.396 32.8871 107.396 32.887C107.396 32.887 107.396 32.887 107.396 32.8869C107.396 32.8869 107.396 32.8868 107.396 32.8868C107.396 32.8868 107.396 32.8867 107.396 32.8867C107.396 32.8866 107.396 32.8866 107.396 32.8866C107.396 32.8865 107.396 32.8865 107.396 32.8864C107.396 32.8864 107.396 32.8864 107.396 32.8863C107.396 32.8863 107.396 32.8862 107.396 32.8862C107.396 32.8862 107.396 32.8861 107.396 32.8861C107.396 32.886 107.396 32.886 107.396 32.8859C107.396 32.8859 107.396 32.8859 107.396 32.8858C107.396 32.8858 107.396 32.8857 107.396 32.8857C107.396 32.8857 107.396 32.8856 107.396 32.8856C107.396 32.8855 107.396 32.8855 107.396 32.8855C107.396 32.8854 107.396 32.8854 107.396 32.8853C107.396 32.8853 107.396 32.8853 107.396 32.8852C107.396 32.8852 107.396 32.8851 107.396 32.8851C107.396 32.885 107.396 32.885 107.396 32.885C107.396 32.8849 107.396 32.8849 107.396 32.8848C107.396 32.8848 107.396 32.8848 107.396 32.8847C107.396 32.8847 107.396 32.8846 107.396 32.8846C107.396 32.8846 107.396 32.8845 107.396 32.8845C107.396 32.8844 107.396 32.8844 107.396 32.8843C107.396 32.8843 107.396 32.8843 107.396 32.8842C107.396 32.8842 107.396 32.8841 107.396 32.8841C107.396 32.8841 107.396 32.884 107.396 32.884C107.396 32.8839 107.396 32.8839 107.396 32.8839C107.396 32.8838 107.396 32.8838 107.396 32.8837C107.396 32.8837 107.396 32.8836 107.396 32.8836C107.396 32.8836 107.396 32.8835 107.396 32.8835C107.396 32.8834 107.396 32.8834 107.396 32.8833C107.396 32.8833 107.396 32.8833 107.396 32.8832C107.396 32.8832 107.396 32.8831 107.396 32.8831C107.396 32.8831 107.396 32.883 107.396 32.883C107.396 32.8829 107.396 32.8829 107.396 32.8828C107.396 32.8828 107.396 32.8828 107.396 32.8827C107.396 32.8827 107.396 32.8826 107.396 32.8826C107.396 32.8825 107.396 32.8825 107.396 32.8825C107.396 32.8824 107.396 32.8824 107.396 32.8823C107.396 32.8823 107.396 32.8823 107.396 32.8822C107.396 32.8822 107.396 32.8821 107.396 32.8821C107.396 32.882 107.396 32.882 107.396 32.882C107.396 32.8819 107.396 32.8819 107.396 32.8818C107.396 32.8818 107.396 32.8817 107.396 32.8817C107.396 32.8817 107.396 32.8816 107.396 32.8816C107.396 32.8815 107.396 32.8815 107.396 32.8814C107.396 32.8814 107.396 32.8814 107.396 32.8813C107.396 32.8813 107.396 32.8812 107.396 32.8812C107.396 32.8811 107.396 32.8811 107.396 32.8811C107.396 32.881 107.396 32.881 107.396 32.8809C107.396 32.8809 107.396 32.8808 107.396 32.8808C107.396 32.8808 107.396 32.8807 107.396 32.8807C107.396 32.8806 107.396 32.8806 107.396 32.8805C107.396 32.8805 107.396 32.8805 107.396 32.8804C107.396 32.8804 107.396 32.8803 107.396 32.8803C107.396 32.8802 107.396 32.8802 107.396 32.8801C107.396 32.8801 107.396 32.8801 107.396 32.88C107.396 32.88 107.396 32.8799 107.396 32.8799C107.396 32.8798 107.396 32.8798 107.396 32.8798C107.396 32.8797 107.396 32.8797 107.396 32.8796C107.396 32.8796 107.396 32.8795 107.396 32.8795C107.396 32.8794 107.396 32.8794 107.396 32.8794C107.396 32.8793 107.396 32.8793 107.396 32.8792C107.396 32.8792 107.396 32.8791 107.396 32.8791C107.396 32.8791 107.396 32.879 107.396 32.879C107.396 32.8789 107.396 32.8789 107.396 32.8788C107.396 32.8788 107.396 32.8787 107.396 32.8787C107.396 32.8787 107.396 32.8786 107.396 32.8786C107.396 32.8785 107.396 32.8785 107.396 32.8784C107.396 32.8784 107.396 32.8783 107.396 32.8783C107.396 32.8783 107.396 32.8782 107.396 32.8782C107.396 32.8781 107.396 32.8781 107.396 32.878C107.396 32.878 107.396 32.8779 107.396 32.8779C107.396 32.8779 107.396 32.8778 107.396 32.8778C107.396 32.8777 107.396 32.8777 107.396 32.8776C107.396 32.8776 107.396 32.8775 107.396 32.8775C107.396 32.8775 107.396 32.8774 107.396 32.8774C107.396 32.8773 107.396 32.8773 107.396 32.8772C107.396 32.8772 107.396 32.8771 107.396 32.8771C107.396 32.8771 107.396 32.877 107.396 32.877C107.396 32.8769 107.396 32.8769 107.396 32.8768C107.396 32.8768 107.396 32.8767 107.396 32.8767C107.396 32.8766 107.396 32.8766 107.396 32.8766C107.396 32.8765 107.396 32.8765 107.396 32.8764C107.396 32.8764 107.396 32.8763 107.396 32.8763C107.396 32.8762 107.396 32.8762 107.396 32.8762C107.396 32.8761 107.396 32.8761 107.396 32.876C107.396 32.876 107.396 32.8759 107.396 32.8759C107.396 32.8758 107.396 32.8758 107.396 32.8757C107.396 32.8757 107.396 32.8757 107.396 32.8756C107.396 32.8756 107.396 32.8755 107.396 32.8755C107.396 32.8754 107.396 32.8754 107.396 32.8753C107.396 32.8753 107.396 32.8752 107.396 32.8752C107.396 32.8751 107.396 32.8751 107.396 32.8751C107.396 32.875 107.396 32.875 107.396 32.8749C107.396 32.8749 107.396 32.8748 107.396 32.8748C107.396 32.8747 107.396 32.8747 107.396 32.8746C107.396 32.8746 107.396 32.8746 107.396 32.8745C107.396 32.8745 107.396 32.8744 107.396 32.8744C107.396 32.8743 107.396 32.8743 107.396 32.8742C107.396 32.8742 107.396 32.8741 107.396 32.8741C107.396 32.874 107.396 32.874 107.396 32.874C107.396 32.8739 107.396 32.8739 107.396 32.8738C107.396 32.8738 107.396 32.8737 107.396 32.8737C107.396 32.8736 107.396 32.8736 107.396 32.8735C107.396 32.8735 107.396 32.8734 107.396 32.8734C107.396 32.8733 107.396 32.8733 107.396 32.8733C107.396 32.8732 107.396 32.8732 107.396 32.8731C107.396 32.8731 107.396 32.873 107.396 32.873C107.396 32.8729 107.396 32.8729 107.396 32.8728C107.396 32.8728 107.396 32.8727 107.396 32.8727C107.396 32.8726 107.396 32.8726 107.396 32.8726C107.396 32.8725 107.396 32.8725 107.396 32.8724C107.396 32.8724 107.396 32.8723 107.396 32.8723C107.396 32.8722 107.396 32.8722 107.396 32.8721C107.396 32.8721 107.396 32.872 107.396 32.872C107.396 32.8719 107.396 32.8719 107.396 32.8718C107.396 32.8718 107.396 32.8718 107.396 32.8717C107.396 32.8717 107.396 32.8716 107.396 32.8716C107.396 32.8715 107.396 32.8715 107.396 32.8714C107.396 32.8714 107.396 32.8713 107.396 32.8713C107.396 32.8712 107.396 32.8712 107.396 32.8711C107.396 32.8711 107.396 32.871 107.396 32.871C107.396 32.8709 107.396 32.8709 107.396 32.8708C107.396 32.8708 107.396 32.8708 107.396 32.8707C107.396 32.8707 107.396 32.8706 107.396 32.8706C107.396 32.8705 107.396 32.8705 107.396 32.8704C107.396 32.8704 107.396 32.8703 107.396 32.8703C107.396 32.8702 107.396 32.8702 107.396 32.8701C107.396 32.8701 107.396 32.87 107.396 32.87C107.396 32.8699 107.396 32.8699 107.396 32.8698C107.396 32.8698 107.396 32.8697 107.396 32.8697C107.396 32.8697 107.396 32.8696 107.396 32.8696C107.396 32.8695 107.396 32.8695 107.396 32.8694C107.396 32.8694 107.396 32.8693 107.396 32.8693C107.396 32.8692 107.396 32.8692 107.396 32.8691C107.396 32.8691 107.396 32.869 107.396 32.869C107.396 32.8689 107.396 32.8689 107.396 32.8688C107.396 32.8688 107.396 32.8687 107.396 32.8687C107.396 32.8686 107.396 32.8686 107.396 32.8685C107.396 32.8685 107.396 32.8684 107.396 32.8684C107.396 32.8683 107.396 32.8683 107.396 32.8682C107.396 32.8682 107.396 32.8681 107.396 32.8681C107.396 32.868 107.396 32.868 107.396 32.868C107.396 32.8679 107.396 32.8679 107.396 32.8678C107.396 32.8678 107.396 32.8677 107.396 32.8677C107.396 32.8676 107.396 32.8676 107.396 32.8675C107.396 32.8675 107.396 32.8674 107.396 32.8674C107.396 32.8673 107.396 32.8673 107.396 32.8672C107.396 32.8672 107.396 32.8671 107.396 32.8671C107.396 32.867 107.396 32.867 107.396 32.8669C107.396 32.8669 107.396 32.8668 107.396 32.8668C107.396 32.8667 107.396 32.8667 107.396 32.8666C107.396 32.8666 107.396 32.8665 107.396 32.8665C107.396 32.8664 107.396 32.8664 107.396 32.8663C107.396 32.8663 107.396 32.8662 107.396 32.8662C107.396 32.8661 107.396 32.8661 107.396 32.866C107.396 32.866 107.396 32.8659 107.396 32.8659C107.396 32.8658 107.396 32.8658 107.396 32.8657C107.396 32.8657 107.396 32.8656 107.396 32.8656C107.396 32.8655 107.396 32.8655 107.396 32.8654C107.396 32.8654 107.396 32.8653 107.396 32.8653C107.396 32.8652 107.396 32.8652 107.396 32.8651C107.396 32.8651 107.396 32.865 107.396 32.865C107.396 32.8649 107.396 32.8649 107.396 32.8648C107.396 32.8648 107.396 32.8647 107.396 32.8647C107.396 32.8646 107.396 32.8646 107.396 32.8645C107.396 32.8645 107.396 32.8644 107.396 32.8644C107.396 32.8643 107.396 32.8643 107.396 32.8642C107.396 32.8642 107.396 32.8641 107.396 32.8641C107.396 32.864 107.396 32.864 107.396 32.8639C107.396 32.8639 107.396 32.8638 107.396 32.8638C107.396 32.8637 107.396 32.8637 107.396 32.8636C107.396 32.8636 107.396 32.8635 107.396 32.8635C107.396 32.8634 107.396 32.8634 107.396 32.8633C107.396 32.8633 107.396 32.8632 107.396 32.8632C107.396 32.8631 107.396 32.8631 107.396 32.863C107.396 32.863 107.396 32.8629 107.396 32.8629C107.396 32.8628 107.396 32.8628 107.396 32.8627C107.396 32.8626 107.396 32.8626 107.396 32.8625C107.396 32.8625 107.396 32.8624 107.396 32.8624C107.396 32.8623 107.396 32.8623 107.396 32.8622C107.396 32.8622 107.396 32.8621 107.396 32.8621C107.396 32.862 107.396 32.862 107.396 32.8619C107.396 32.8619 107.396 32.8618 107.396 32.8618C107.396 32.8617 107.396 32.8617 107.396 32.8616C107.396 32.8616 107.396 32.8615 107.396 32.8615C107.396 32.8614 107.396 32.8614 107.396 32.8613C107.396 32.8613 107.396 32.8612 107.396 32.8612C107.396 32.8611 107.396 32.8611 107.396 32.861C107.396 32.861 107.396 32.8609 107.396 32.8608C107.396 32.8608 107.396 32.8607 107.396 32.8607C107.396 32.8606 107.396 32.8606 107.396 32.8605C107.396 32.8605 107.396 32.8604 107.396 32.8604C107.396 32.8603 107.396 32.8603 107.396 32.8602C107.396 32.8602 107.396 32.8601 107.396 32.8601C107.396 32.86 107.396 32.86 107.396 32.8599C107.396 32.8599 107.396 32.8598 107.396 32.8598C107.396 32.8597 107.396 32.8596 107.396 32.8596C107.396 32.8595 107.396 32.8595 107.396 32.8594C107.396 32.8594 107.396 32.8593 107.396 32.8593C107.396 32.8592 107.396 32.8592 107.396 32.8591C107.396 32.8591 107.396 32.859 107.396 32.859C107.396 32.8589 107.396 32.8589 107.396 32.8588C107.396 32.8588 107.396 32.8587 107.396 32.8587C107.396 32.8586 107.396 32.8585 107.396 32.8585C107.396 32.8584 107.396 32.8584 107.396 32.8583C107.396 32.8583 107.396 32.8582 107.396 32.8582C107.396 32.8581 107.396 32.8581 107.396 32.858C107.396 32.858 107.396 32.8579 107.396 32.8579C107.396 32.8578 107.396 32.8578 107.396 32.8577C107.396 32.8576 107.396 32.8576 107.396 32.8575C107.396 32.8575 107.396 32.8574 107.396 32.8574C107.396 32.8573 107.396 32.8573 107.396 32.8572C107.396 32.8572 107.396 32.8571 107.396 32.8571C107.396 32.857 107.396 32.857 107.396 32.8569C107.396 32.8568 107.396 32.8568 107.396 32.8567C107.396 32.8567 107.396 32.8566 107.396 32.8566C107.396 32.8565 107.396 32.8565 107.396 32.8564C107.396 32.8564 107.396 32.8563 107.396 32.8563C107.396 32.8562 107.396 32.8562 107.396 32.8561C107.396 32.856 107.396 32.856 107.396 32.8559C107.396 32.8559 107.396 32.8558 107.396 32.8558C107.396 32.8557 107.396 32.8557 107.396 32.8556C107.396 32.8556 107.396 32.8555 107.396 32.8554C107.396 32.8554 107.396 32.8553 107.396 32.8553C107.396 32.8552 107.396 32.8552 107.396 32.8551C107.396 32.8551 107.396 32.855 107.396 32.855C107.396 32.8549 107.396 32.8549 107.396 32.8548C107.396 32.8547 107.396 32.8547 107.396 32.8546C107.396 32.8546 107.396 32.8545 107.396 32.8545C107.396 32.8544 107.396 32.8544 107.396 32.8543C107.396 32.8543 107.396 32.8542 107.396 32.8541C107.396 32.8541 107.396 32.854 107.396 32.854C107.396 32.8539 107.396 32.8539 107.396 32.8538C107.396 32.8538 107.396 32.8537 107.396 32.8537C107.396 32.8536 107.396 32.8535 107.396 32.8535C107.396 32.8534 107.396 32.8534 107.396 32.8533C107.396 32.8533 107.396 32.8532 107.396 32.8532C107.396 32.8531 107.396 32.8531 107.396 32.853C107.396 32.8529 107.396 32.8529 107.396 32.8528C107.396 32.8528 107.396 32.8527 107.396 32.8527C107.396 32.8526 107.396 32.8526 107.396 32.8525C107.396 32.8525 107.396 32.8524 107.396 32.8523C107.396 32.8523 107.396 32.8522 107.396 32.8522C107.396 32.8521 107.396 32.8521 107.396 32.852C107.396 32.852 107.396 32.8519 107.396 32.8518C107.396 32.8518 107.396 32.8517 107.396 32.8517C107.396 32.8516 107.396 32.8516 107.396 32.8515C107.396 32.8515 107.396 32.8514 107.396 32.8513C107.396 32.8513 107.396 32.8512 107.396 32.8512C107.396 32.8511 107.396 32.8511 107.396 32.851C107.396 32.851 107.396 32.8509 107.396 32.8508C107.396 32.8508 107.396 32.8507 107.396 32.8507C107.396 32.8506 107.396 32.8506 107.396 32.8505C107.396 32.8505 107.396 32.8504 107.396 32.8503C107.396 32.8503 107.396 32.8502 107.396 32.8502C107.396 32.8501 107.396 32.8501 107.396 32.85C107.396 32.85 107.396 32.8499 107.396 32.8498C107.396 32.8498 107.396 32.8497 107.396 32.8497C107.396 32.8496 107.396 32.8496 107.396 32.8495C107.396 32.8494 107.396 32.8494 107.396 32.8493C107.396 32.8493 107.396 32.8492 107.396 32.8492C107.396 32.8491 107.396 32.8491 107.396 32.849C107.396 32.8489 107.396 32.8489 107.396 32.8488C107.396 32.8488 107.396 32.8487 107.396 32.8487C107.396 32.8486 107.396 32.8485 107.396 32.8485C107.396 32.8484 107.396 32.8484 107.396 32.8483C107.396 32.8483 107.396 32.8482 107.396 32.8481C107.396 32.8481 107.396 32.848 107.396 32.848C107.396 32.8479 107.396 32.8479 107.396 32.8478C107.396 32.8478 107.396 32.8477 107.396 32.8476C107.396 32.8476 107.396 32.8475 107.396 32.8475C107.396 32.8474 107.396 32.8474 107.396 32.8473C107.396 32.8472 107.396 32.8472 107.396 32.8471C107.396 32.8471 107.396 32.847 107.396 32.847C107.396 32.8469 107.396 32.8468 107.396 32.8468C107.396 32.8467 107.396 32.8467 107.396 32.8466C107.396 32.8466 107.396 32.8465 107.396 32.8464C107.396 32.8464 107.396 32.8463 107.396 32.8463C107.396 32.8462 107.396 32.8462 107.396 32.8461C107.396 32.846 107.396 32.846 107.396 32.8459C107.396 32.8459 107.396 32.8458 107.396 32.8457C107.396 32.8457 107.396 32.8456 107.396 32.8456C107.396 32.8455 107.396 32.8455 107.396 32.8454C107.396 32.8453 107.396 32.8453 107.396 32.8452C107.396 32.8452 107.396 32.8451 107.396 32.8451C107.396 32.845 107.396 32.8449 107.396 32.8449C107.396 32.8448 107.396 32.8448 107.396 32.8447C107.396 32.8447 107.396 32.8446 107.396 32.8445C107.396 32.8445 107.396 32.8444 107.396 32.8444C107.396 32.8443 107.396 32.8442 107.396 32.8442C107.396 32.8441 107.396 32.8441 107.396 32.844C107.396 32.844 107.396 32.8439 107.396 32.8438C107.396 32.8438 107.396 32.8437 107.396 32.8437C107.396 32.8436 107.396 32.8435 107.396 32.8435C107.396 32.8434 107.396 32.8434 107.396 32.8433C107.396 32.8433 107.396 32.8432 107.396 32.8431C107.396 32.8431 107.396 32.843 107.396 32.843C107.396 32.8429 107.396 32.8428 107.396 32.8428C107.396 32.8427 107.396 32.8427 107.396 32.8426C107.396 32.8426 107.396 32.8425 107.396 32.8424C107.396 32.8424 107.396 32.8423 107.396 32.8423C107.396 32.8422 107.396 32.8421 107.396 32.8421C107.396 32.842 107.396 32.842 107.396 32.8419C107.396 32.8418 107.396 32.8418 107.396 32.8417C107.396 32.8417 107.396 32.8416 107.396 32.8416C107.396 32.8415 107.396 32.8414 107.396 32.8414C107.396 32.8413 107.396 32.8413 107.396 32.8412C107.396 32.8411 107.396 32.8411 107.396 32.841C107.396 32.841 107.396 32.8409 107.396 32.8408C107.396 32.8408 107.396 32.8407 107.396 32.8407C107.396 32.8406 107.396 32.8405 107.396 32.8405C107.396 32.8404 107.396 32.8404 107.396 32.8403C107.396 32.8402 107.396 32.8402 107.396 32.8401C107.396 32.8401 107.396 32.84 107.396 32.84C107.396 32.8399 107.396 32.8398 107.396 32.8398C107.396 32.8397 107.396 32.8397 107.396 32.8396C107.396 32.8395 107.396 32.8395 107.396 32.8394C107.396 32.8394 107.396 32.8393 107.396 32.8392C107.396 32.8392 107.396 32.8391 107.396 32.8391C107.396 32.839 107.396 32.8389 107.396 32.8389C107.396 32.8388 107.396 32.8388 107.396 32.8387C107.396 32.8386 107.396 32.8386 107.396 32.8385C107.396 32.8385 107.396 32.8384 107.396 32.8383C107.396 32.8383 107.396 32.8382 107.396 32.8382C107.396 32.8381 107.396 32.838 107.396 32.838C107.396 32.8379 107.396 32.8379 107.396 32.8378C107.396 32.8377 107.396 32.8377 107.396 32.8376C107.396 32.8376 107.396 32.8375 107.396 32.8374C107.396 32.8374 107.396 32.8373 107.396 32.8372C107.396 32.8372 107.396 32.8371 107.396 32.8371C107.396 32.837 107.396 32.8369 107.396 32.8369C107.396 32.8368 107.396 32.8368 107.396 32.8367C107.396 32.8366 107.396 32.8366 107.396 32.8365C107.396 32.8365 107.396 32.8364 107.396 32.8363C107.396 32.8363 107.396 32.8362 107.396 32.8362C107.396 32.8361 107.396 32.836 107.396 32.836C107.396 32.8359 107.396 32.8358 107.396 32.8358C107.396 32.8357 107.396 32.8357 107.396 32.8356C107.396 32.8355 107.396 32.8355 107.396 32.8354C107.396 32.8354 107.396 32.8353 107.396 32.8352C107.396 32.8352 107.396 32.8351 107.396 32.8351C107.396 32.835 107.396 32.8349 107.396 32.8349C107.396 32.8348 107.396 32.8347 107.396 32.8347C107.396 32.8346 107.396 32.8346 107.396 32.8345C107.396 32.8344 107.396 32.8344 107.396 32.8343C107.396 32.8343 107.396 32.8342 107.396 32.8341C107.396 32.8341 107.396 32.834 107.396 32.834C107.396 32.8339 107.396 32.8338 107.396 32.8338C107.396 32.8337 107.396 32.8336 107.396 32.8336C107.396 32.8335 107.396 32.8335 107.396 32.8334C107.396 32.8333 107.396 32.8333 107.396 32.8332C107.396 32.8331 107.396 32.8331 107.396 32.833C107.396 32.833 107.396 32.8329 107.396 32.8328C107.396 32.8328 107.396 32.8327 107.396 32.8326C107.396 32.8326 107.396 32.8325 107.396 32.8325C107.396 32.8324 107.396 32.8323 107.396 32.8323C107.396 32.8322 107.396 32.8322 107.396 32.8321C107.396 32.832 107.396 32.832 107.396 32.8319C107.396 32.8318 107.396 32.8318 107.396 32.8317C107.396 32.8317 107.396 32.8316 107.396 32.8315C107.396 32.8315 107.396 32.8314 107.396 32.8313C107.396 32.8313 107.396 32.8312 107.396 32.8312C107.396 32.8311 107.396 32.831 107.396 32.831C107.396 32.8309 107.396 32.8308 107.396 32.8308C107.396 32.8307 107.396 32.8307 107.396 32.8306C107.396 32.8305 107.396 32.8305 107.396 32.8304C107.396 32.8303 107.396 32.8303 107.396 32.8302C107.396 32.8302 107.396 32.8301 107.396 32.83C107.396 32.83 107.396 32.8299 107.396 32.8298C107.396 32.8298 107.396 32.8297 107.396 32.8296C107.396 32.8296 107.396 32.8295 107.396 32.8295C107.396 32.8294 107.396 32.8293 107.396 32.8293C107.396 32.8292 107.396 32.8291 107.396 32.8291C107.396 32.829 107.396 32.8289 107.396 32.8289C107.396 32.8288 107.396 32.8288 107.396 32.8287C107.396 32.8286 107.396 32.8286 107.396 32.8285C107.396 32.8284 107.396 32.8284 107.396 32.8283C107.396 32.8283 107.396 32.8282 107.396 32.8281H99.3955ZM99.3955 32.9014V57.291H107.396V32.9014H99.3955ZM101.792 53.6264L97.886 55.3354L101.093 62.6646L104.999 60.9556L101.792 53.6264ZM140.141 22.5986V18.5986H137.525L136.476 20.9954L140.141 22.5986ZM159.721 22.5986L163.385 24.2019L165.837 18.5986H159.721V22.5986ZM158.012 26.5049V30.5049H160.628L161.676 28.1082L158.012 26.5049ZM151.029 26.5049V22.5049H147.029V26.5049H151.029ZM151.029 54.6055H147.029V58.6055H151.029V54.6055ZM159.721 54.6055L163.385 56.2087L165.837 50.6055H159.721V54.6055ZM158.012 58.5117V62.5117H160.628L161.676 60.115L158.012 58.5117ZM138.432 58.5117L134.767 56.9084L132.316 62.5117H138.432V58.5117ZM140.141 54.6055V50.6055H137.525L136.476 53.0022L140.141 54.6055ZM147.123 54.6055V58.6055H151.123V54.6055H147.123ZM147.123 26.5049H151.123V22.5049H147.123V26.5049ZM138.432 26.5049L134.767 24.9016L132.316 30.5049H138.432V26.5049ZM140.141 26.5986H159.721V18.5986H140.141V26.5986ZM156.056 20.9954L154.347 24.9016L161.676 28.1082L163.385 24.2019L156.056 20.9954ZM158.012 22.5049H151.029V30.5049H158.012V22.5049ZM147.029 26.5049V54.6055H155.029V26.5049H147.029ZM151.029 58.6055H159.721V50.6055H151.029V58.6055ZM156.056 53.0022L154.347 56.9084L161.676 60.115L163.385 56.2087L156.056 53.0022ZM158.012 54.5117H138.432V62.5117H158.012V54.5117ZM142.096 60.115L143.805 56.2087L136.476 53.0022L134.767 56.9084L142.096 60.115ZM140.141 58.6055H147.123V50.6055H140.141V58.6055ZM151.123 54.6055V26.5049H143.123V54.6055H151.123ZM147.123 22.5049H138.432V30.5049H147.123V22.5049ZM142.096 28.1082L143.805 24.2019L136.476 20.9954L134.767 24.9016L142.096 28.1082ZM176.642 59H172.642V65.1161L178.245 62.6646L176.642 59ZM179.864 25.3086L182.671 28.1585L182.676 28.1532L182.682 28.1478L179.864 25.3086ZM195.44 25.3086L192.623 28.1478L192.628 28.1532L192.634 28.1585L195.44 25.3086ZM198.663 57.291L200.266 60.9556L202.663 59.9071V57.291H198.663ZM194.757 59H190.757V65.1161L196.36 62.6646L194.757 59ZM194.757 42.5205H198.757V38.5205H194.757V42.5205ZM180.548 42.5205V38.5205H176.548V42.5205H180.548ZM180.548 57.291L182.151 60.9556L184.548 59.9071V57.291H180.548ZM180.548 38.6143H176.548V42.6143H180.548V38.6143ZM194.757 38.6143V42.6143H198.757V38.6143H194.757ZM194.757 32.9014H198.757V32.8847L198.757 32.868L194.757 32.9014ZM192.657 27.9209L189.845 30.7658L189.846 30.766L192.657 27.9209ZM182.623 27.9209L185.435 30.766L185.435 30.7658L182.623 27.9209ZM180.642 59V32.9746H172.642V59H180.642ZM180.642 32.9746C180.642 31.0596 181.28 29.5284 182.671 28.1585L177.058 22.4587C174.152 25.3205 172.642 28.9001 172.642 32.9746H180.642ZM182.682 28.1478C184.076 26.7638 185.658 26.1104 187.652 26.1104V18.1104C183.56 18.1104 179.949 19.5891 177.047 22.4694L182.682 28.1478ZM187.652 26.1104C189.647 26.1104 191.228 26.7638 192.623 28.1478L198.258 22.4694C195.356 19.5891 191.745 18.1104 187.652 18.1104V26.1104ZM192.634 28.1585C194.025 29.5284 194.663 31.0596 194.663 32.9746H202.663C202.663 28.9001 201.153 25.3205 198.247 22.4587L192.634 28.1585ZM194.663 32.9746V57.291H202.663V32.9746H194.663ZM197.06 53.6264L193.154 55.3354L196.36 62.6646L200.266 60.9556L197.06 53.6264ZM198.757 59V42.5205H190.757V59H198.757ZM194.757 38.5205H180.548V46.5205H194.757V38.5205ZM176.548 42.5205V57.291H184.548V42.5205H176.548ZM178.945 53.6264L175.038 55.3354L178.245 62.6646L182.151 60.9556L178.945 53.6264ZM180.548 42.6143H194.757V34.6143H180.548V42.6143ZM198.757 38.6143V32.9014H190.757V38.6143H198.757ZM198.757 32.868C198.732 29.8624 197.608 27.1898 195.469 25.0758L189.846 30.766C190.473 31.3864 190.749 32.0341 190.757 32.9347L198.757 32.868ZM195.469 25.076C193.334 22.9658 190.661 21.8457 187.652 21.8457V29.8457C188.518 29.8457 189.181 30.109 189.845 30.7658L195.469 25.076ZM187.652 21.8457C184.637 21.8457 181.953 22.9588 179.811 25.076L185.435 30.7658C186.092 30.1161 186.761 29.8457 187.652 29.8457V21.8457ZM179.811 25.0758C177.686 27.1764 176.548 29.8293 176.548 32.8281H184.548C184.548 32.0183 184.793 31.3998 185.435 30.766L179.811 25.0758ZM176.548 32.8281V32.9014H184.548V32.8281H176.548ZM176.548 32.9014V38.6143H184.548V32.9014H176.548Z" fill="white" mask="url(#path-1-outside-1_6_11)"/>
</svg>
